<?xml version="1.0" encoding="UTF-8"?>
<svg width="14px" height="14px" viewBox="0 0 14 14" version="1.1" xmlns="http://www.w3.org/2000/svg" xmlns:xlink="http://www.w3.org/1999/xlink">
    <!-- Generator: sketchtool 52.6 (67491) - http://www.bohemiancoding.com/sketch -->
    <title>D00ED5B9-F6CB-4C1F-8FF9-C7411686A970</title>
    <desc>Created with sketchtool.</desc>
    <g id="Page-1" stroke="none" stroke-width="1" fill="none" fill-rule="evenodd">
        <g id="smart-save/Buy/1" transform="translate(-196.000000, -152.000000)" fill="#4DC3B6">
            <g id="Group-2" transform="translate(15.000000, 97.000000)">
                <g id="Group">
                    <g id="Group-3" transform="translate(15.000000, 18.000000)">
                        <g id="Group-Copy" transform="translate(155.000000, 26.000000)">
                            <g id="icon/toggle/radio_button_checked_24px" transform="translate(10.000000, 10.000000)">
                                <g id="✱-/-Color-/-Icons-/-Primary-or-Secondary" opacity="0" fill-rule="evenodd">
                                    <g id="✱-/-Color-/-Secondary-/-400">
                                        <rect id="Rectangle-13" x="0" y="0" width="16" height="16"></rect>
                                    </g>
                                </g>
                                <path d="M8.08421053,1.34736842 C4.36547368,1.34736842 1.34736842,4.36547368 1.34736842,8.08421053 C1.34736842,11.8029474 4.36547368,14.8210526 8.08421053,14.8210526 C11.8029474,14.8210526 14.8210526,11.8029474 14.8210526,8.08421053 C14.8210526,4.36547368 11.8029474,1.34736842 8.08421053,1.34736842 Z M8.08421053,13.4736842 C5.10652632,13.4736842 2.69473684,11.0618947 2.69473684,8.08421053 C2.69473684,5.10652632 5.10652632,2.69473684 8.08421053,2.69473684 C11.0618947,2.69473684 13.4736842,5.10652632 13.4736842,8.08421053 C13.4736842,11.0618947 11.0618947,13.4736842 8.08421053,13.4736842 Z M8.08421053,11.4526316 C9.9445381,11.4526316 11.4526316,9.9445381 11.4526316,8.08421053 C11.4526316,6.22388295 9.9445381,4.71578947 8.08421053,4.71578947 C6.22388295,4.71578947 4.71578947,6.22388295 4.71578947,8.08421053 C4.71578947,9.9445381 6.22388295,11.4526316 8.08421053,11.4526316 Z" fill-rule="nonzero"></path>
                            </g>
                        </g>
                    </g>
                </g>
            </g>
        </g>
    </g>
</svg>